# AST/ASF file generated using VICON BodyLanguage
# -----------------------------------------------
:version 1.10
:name VICON
:units
  mass 1.0
  length 0.45
  angle deg
:documentation
   .ast/.asf automatically generated from VICON data using
   VICON BodyBuilder and BodyLanguage model FoxedUp or BRILLIANT.MOD
:root
   order TX TY TZ RX RY RZ
   axis XYZ
   position 0 0 0  
   orientation 0 0 0 
:bonedata
  begin
     id 1 
     name lhipjoint
     direction 0.682418 -0.694059 0.22932 
     length 2.25561 
     axis 0 0 0  XYZ
  end
  begin
     id 2 
     name lfemur
     direction 0.34202 -0.939693 0  
     length 6.96448  
     axis 0 0 20  XYZ
    dof rx ry rz
    limits (-160.0 20.0)
           (-70.0 70.0)
           (-60.0 70.0)
  end
  begin
     id 3 
     name ltibia
     direction 0.34202 -0.939693 0   
     length 6.88553   
     axis 0 0 20   XYZ
    dof rx
    limits (-10.0 170.0)
  end
  begin
     id 4 
     name lfoot
     direction 0.0723587 -0.198804 0.977364   
     length 1.88518   
     axis -90 7.62852e-016 20   XYZ
    dof rx rz
    limits (-45.0 90.0)
           (-70.0 20.0)
  end
  begin
     id 5 
     name ltoes
     direction 1.53558e-011 -4.21962e-011 1   
     length 0.952124   
     axis -90 7.62852e-016 20   XYZ
    dof rx
    limits (-90.0 20.0)
  end
  begin
     id 6 
     name rhipjoint
     direction -0.657603 -0.71533 0.236348   
     length 2.18854  
     axis 0 0 0  XYZ 
  end
  begin
     id 7 
     name rfemur
     direction -0.34202 -0.939693 0   
     length 6.86686   
     axis 0 0 -20   XYZ
    dof rx ry rz
    limits (-160.0 20.0)
           (-70.0 70.0)
           (-70.0 60.0)
  end
  begin
     id 8 
     name rtibia
     direction -0.34202 -0.939693 0   
     length 6.59503   
     axis 0 0 -20   XYZ
    dof rx
    limits (-10.0 170.0)
 end
 begin
     id 9 
     name rfoot
     direction -0.101977 -0.280179 0.954516   
     length 1.93723  
     axis -90 -7.62852e-016 -20   XYZ
    dof rx rz
    limits (-45.0 90.0)
           (-20.0 70.0)
  end
  begin
     id 10 
     name rtoes
     direction -1.53564e-011 -4.21897e-011 1   
     length 0.970315   
     axis -90 -7.62852e-016 -20   XYZ
    dof rx
    limits (-90.0 20.0)
  end
  begin
     id 11 
     name lowerback
     direction -0.0339559 0.999421 -0.00235966   
     length 1.88543   
     axis 0 0 0   XYZ
    dof rx ry rz
    limits (-20.0 45.0)
           (-30.0 30.0)
           (-30.0 30.0)
  end
  begin
     id 12 
     name upperback
     direction 0.00401003 0.999739 0.0224689   
     length 1.8856   
     axis 0 0 0   XYZ
    dof rx ry rz
    limits (-20.0 45.0)
           (-30.0 30.0)
           (-30.0 30.0)
  end
  begin
     id 13 
     name thorax
     direction 0.0198619 0.999546 0.0226536   
     length 1.88352   
     axis 0 0 0   XYZ
    dof rx ry rz
    limits (-20.0 45.0)
           (-30.0 30.0)
           (-30.0 30.0)
  end
  begin
     id 14 
     name lowerneck
     direction -0.0461848 0.998632 0.0245198   
     length 1.34895   
     axis 0 0 0   XYZ
    dof rx ry rz
    limits (-20.0 45.0)
           (-30.0 30.0)
           (-30.0 30.0)
  end
  begin
     id 15 
     name upperneck
     direction -0.0180627 0.994724 -0.100984   
     length 1.35214   
     axis 0 0 0   XYZ
    dof rx ry rz
    limits (-20.0 45.0)
           (-30.0 30.0)
           (-30.0 30.0)
  end
  begin
     id 16
     name head
     direction -0.00374772 0.999293 -0.037403  
     length 1.3568  
     axis 0 0 0   XYZ
    dof rx ry rz
    limits (-20.0 45.0)
           (-30.0 30.0)
           (-30.0 30.0)
  end
  begin
     id 17 
     name lclavicle
     direction 0.971773 0.191119 0.138311  
     length 2.84954  
     axis 0 0 0   XYZ
    dof ry rz
    limits (-20.0 10.0)
           (0.0 20.0)
  end
  begin
     id 18 
     name lhumerus
     direction 1 -4.4897e-011 -2.43761e-027   
     length 4.40919   
     axis 180 -30 -90   XYZ
    dof rx ry rz
    limits (-60.0 90.0)
           (-90.0 90.0)
           (-90.0 90.0)
  end
  begin
     id 19
     name lradius
     direction 1 -4.4896e-011 -9.1621e-027   
     length 3.03857   
     axis 180 -30 -90   XYZ
    dof rx
    limits (-10.0 170.0)
  end
  begin
     id 20
     name lwrist
     direction 1 -4.4896e-011 -1.41363e-026   
     length 1.51928   
     axis 1.07133e-014 90 90   XYZ
    dof ry
    limits (-180.0 0.0)
 end
  begin
     id 21 
     name lhand
     direction 1 -4.48978e-011 -2.82725e-026   
     length 0.523208   
     axis 1.80403e-014 90 90   XYZ
    dof rx rz
    limits (-90.0 90.0)
           (-45.0 45.0)
  end
  begin
     id 22 
     name lfingers
     direction 1 -4.48977e-011 -5.6545e-026   
     length 0.421824   
     axis 3.60806e-014 90 90   XYZ
    dof rx
    limits (0.0 90.0)
  end
  begin
     id 23
     name lthumb
     direction 0.707107 -6.34962e-011 0.707107   
     length 0.605657   
     axis -90 45 2.85299e-015   XYZ
    dof rx rz
    limits (-45.0 45.0)
           (-45.0 45.0)
  end
  begin
     id 24 
     name rclavicle
     direction -0.957247 0.24311 0.156766   
     length 3.12406  
     axis 0 0 0   XYZ 
    dof ry rz
    limits (-10.0 20.0)
           (-20.0 0.0)
  end
  begin
     id 25 
     name rhumerus
     direction -1 -4.48964e-011 -1.70632e-027  
     length 4.61969   
     axis 180 30 90   XYZ
    dof rx ry rz
    limits (-90.0 60.0)
           (-90.0 90.0)
           (-90.0 90.0)
  end
  begin
     id 26 
     name rradius
     direction -1 -4.48966e-011 -6.60395e-027   
     length 3.09382   
     axis 180 30 90   XYZ
    dof rx
    limits (-10.0 170.0)
  end
  begin
     id 27 
     name rwrist
     direction -1 -4.48963e-011 -1.41363e-026   
     length 1.54691   
     axis 1.07133e-014 -90 -90   XYZ
    dof ry
    limits (-180.0 0.0)
  end
  begin
     id 28
     name rhand
     direction -1 -4.49013e-011 -2.82725e-026   
     length 0.500896   
     axis 1.80403e-014 -90 -90   XYZ
    dof rx rz
    limits (-90.0 90.0)
           (-45.0 45.0)
  end
  begin
     id 29
     name rfingers
     direction -1 -4.48902e-011 -5.6545e-026   
     length 0.403835   
     axis 3.60806e-014 -90 -90   XYZ
    dof rx
    limits (0.0 90.0)
  end
  begin
     id 30
     name rthumb
     direction -0.707107 -6.34953e-011 0.707107   
     length 0.579829   
     axis -90 -45 -2.85299e-015   XYZ
    dof rx rz
    limits (-45.0 45.0)
           (-45.0 45.0)
  end
:hierarchy
  begin
    root lhipjoint rhipjoint lowerback
    lhipjoint lfemur
    lfemur ltibia
    ltibia lfoot
    lfoot ltoes
    rhipjoint rfemur
    rfemur rtibia
    rtibia rfoot
    rfoot rtoes
    lowerback upperback
    upperback thorax
    thorax lowerneck lclavicle rclavicle
    lowerneck upperneck
    upperneck head
    lclavicle lhumerus
    lhumerus lradius
    lradius lwrist
    lwrist lhand lthumb
    lhand lfingers
    rclavicle rhumerus
    rhumerus rradius
    rradius rwrist
    rwrist rhand rthumb
    rhand rfingers
  end

#!OML:ASF E:\madness\Project 1\Capture day 1\Session 1\Female1.ASF
:FULLY-SPECIFIED
:DEGREES
86
root 7.10628 16.2331 -2.55703 6.86553 -55.643 2.93147
lowerback -4.09753 1.90689 -0.889563
upperback -5.06161 2.488 -0.167981
thorax -2.94351 1.24184 0.361428
lowerneck 3.07933 11.7578 7.65801
upperneck 12.266 17.02 -11.7476
head 4.84668 8.22973 -4.08043
rclavicle 3.84773e-014 -4.77083e-015
rhumerus -45.1628 -13.7323 -73.6455
rradius 27.5858
rwrist 10.2279
rhand -9.63343 -48.1911
rfingers 7.12502
rthumb 16.3366 -77.523
lclavicle 3.84773e-014 -4.77083e-015
lhumerus -52.1825 14.8906 77.1116
lradius 37.3781
lwrist -16.1948
lhand -22.6746 -14.3228
lfingers 7.12502
lthumb 3.75729 15.6238
rfemur -6.41165 2.24491 28.0775
rtibia 13.082
rfoot -25.0548 -33.1893
rtoes 31.0045
lfemur -23.6246 -13.1163 -10.4219
ltibia 28.0113
lfoot -11.5112 5.13501
ltoes 22.4971
87
root 7.10074 16.2363 -2.55021 6.91191 -55.1151 2.91061
lowerback -4.08204 1.90345 -0.808355
upperback -5.08824 2.48103 -0.20764
thorax -2.97432 1.23511 0.274204
lowerneck 3.26226 11.7374 7.97487
upperneck 12.2162 17.028 -11.9879
head 4.84913 8.2466 -4.21049
rclavicle -4.51738e-014 -8.74653e-015
rhumerus -45.0143 -13.8599 -73.5969
rradius 27.409
rwrist 10.3851
rhand -9.96004 -47.9887
rfingers 7.12502
rthumb 16.0221 -77.3462
lclavicle -4.51738e-014 -8.74653e-015
lhumerus -52.4319 14.4598 77.2553
lradius 37.8063
lwrist -15.4351
lhand -22.667 -13.9299
lfingers 7.12502
lthumb 3.76463 16.0166
rfemur -6.35046 2.35414 28.1068
rtibia 12.9448
rfoot -25.4027 -33.5979
rtoes 31.736
lfemur -23.8452 -13.2586 -10.3549
ltibia 27.9026
lfoot -11.4995 5.30375
ltoes 24.8909
88
root 7.09214 16.2391 -2.54137 6.78521 -54.58 3.00077
lowerback -4.21437 1.93231 -0.809246
upperback -4.95397 2.52255 -0.302558
thorax -2.75697 1.25461 0.185763
lowerneck 3.27829 11.6836 8.44921
upperneck 12.1197 16.9933 -12.3099
head 4.88049 8.24213 -4.38071
rclavicle 2.32081e-014 1.2921e-014
rhumerus -44.7826 -14.0904 -73.6721
rradius 27.3579
rwrist 10.3917
rhand -10.2831 -48.274
rfingers 7.12502
rthumb 15.7111 -77.6562
lclavicle 2.32081e-014 1.2921e-014
lhumerus -52.3372 14.667 76.9307
lradius 37.7945
lwrist -15.6172
lhand -22.6812 -14.2849
lfingers 7.12502
lthumb 3.75094 15.6619
rfemur -6.18898 2.41124 28.0864
rtibia 12.8607
rfoot -25.7499 -34.0379
rtoes 32.0392
lfemur -23.9052 -13.4468 -10.3889
ltibia 27.7358
lfoot -11.5507 5.51665
ltoes 26.733
89
root 7.08444 16.2367 -2.53367 6.65999 -54.0888 3.15481
lowerback -4.44521 1.97903 -0.966689
upperback -4.7929 2.59423 -0.330035
thorax -2.46772 1.29499 0.259007
lowerneck 3.09268 11.6552 8.69719
upperneck 12.1914 16.9737 -12.4208
head 4.96146 8.23116 -4.4372
rclavicle 6.15239e-014 1.13307e-014
rhumerus -44.4826 -14.0935 -73.7773
rradius 27.368
rwrist 10.1463
rhand -10.3916 -48.6779
rfingers 7.12502
rthumb 15.6065 -78.0683
lclavicle 6.15239e-014 1.13307e-014
lhumerus -52.0811 15.0708 76.6394
lradius 37.5212
lwrist -16.1886
lhand -22.7136 -14.6534
lfingers 7.12502
lthumb 3.71966 15.2939
rfemur -6.0755 2.49501 28.0355
rtibia 12.7553
rfoot -26.0415 -34.5339
rtoes 32.1213
lfemur -23.9623 -13.5245 -10.4635
ltibia 27.514
lfoot -11.4769 5.68383
ltoes 26.6908
90
root 7.07826 16.2339 -2.52983 6.76981 -53.6011 3.13021
lowerback -4.49687 2.03581 -1.02343
upperback -4.82091 2.67223 -0.29461
thorax -2.47341 1.33647 0.32986
lowerneck 3.04212 11.6954 8.4349
upperneck 12.2563 16.9943 -12.0979
head 4.94256 8.24097 -4.29546
rclavicle 4.25151e-014 5.36719e-015
rhumerus -44.4441 -13.9886 -73.7312
rradius 27.4241
rwrist 9.9305
rhand -10.0717 -48.4768
rfingers 7.12502
rthumb 15.9146 -77.8429
lclavicle 4.25151e-014 5.36719e-015
lhumerus -52.1628 14.949 76.7147
lradius 37.6044
lwrist -16.0917
lhand -22.7211 -14.5363
lfingers 7.12502
lthumb 3.71247 15.4111
rfemur -6.07997 2.74918 28.1002
rtibia 12.6255
rfoot -26.4597 -35.1058
rtoes 32.4509
lfemur -24.1824 -13.4542 -10.4021
ltibia 27.2776
lfoot -11.2449 5.84188
ltoes 25.3914
91
root 7.07379 16.2361 -2.52471 6.8631 -53.1007 3.0524
lowerback -4.38414 2.14275 -0.964492
upperback -4.89142 2.81186 -0.286757
thorax -2.60898 1.40536 0.301543
lowerneck 3.11908 11.7229 8.10634
upperneck 12.1747 16.9875 -11.7653
head 4.84814 8.24437 -4.15566
rclavicle -6.37105e-014 -4.77083e-015
rhumerus -44.5749 -13.9817 -73.6105
rradius 27.5452
rwrist 9.74351
rhand -9.83863 -48.1536
rfingers 7.12502
rthumb 16.139 -77.5016
lclavicle -6.37105e-014 -4.77083e-015
lhumerus -52.3504 14.668 76.8729
lradius 37.8471
lwrist -15.7934
lhand -22.5244 -14.2944
lfingers 7.12502
lthumb 3.90242 15.6496
rfemur -6.03475 2.83992 28.1927
rtibia 12.4859
rfoot -26.777 -35.5683
rtoes 32.6477
lfemur -24.3826 -13.3659 -10.3265
ltibia 27.0286
lfoot -11.1234 5.91959
ltoes 24.8007
92
root 7.07149 16.2411 -2.51593 6.93187 -52.6478 3.06284
lowerback -4.29211 2.2931 -0.901777
upperback -5.00466 3.00727 -0.346605
thorax -2.77407 1.50044 0.201763
lowerneck 3.26569 11.6972 8.20399
upperneck 12.1524 16.9637 -11.7874
head 4.8246 8.24364 -4.18846
rclavicle -3.41413e-014 -1.39149e-015
rhumerus -44.7792 -14.1665 -73.4691
rradius 27.7138
rwrist 9.72988
rhand -9.99897 -48.3238
rfingers 7.12502
rthumb 15.9846 -77.6843
lclavicle -3.41413e-014 -1.39149e-015
lhumerus -52.6297 13.7449 77.3054
lradius 38.3132
lwrist -14.898
lhand -22.4716 -13.7681
lfingers 7.12502
lthumb 3.95341 16.175
rfemur -6.04741 2.57678 28.2102
rtibia 12.3401
rfoot -26.7263 -35.7846
rtoes 32.651
lfemur -24.5557 -13.4798 -10.2297
ltibia 26.7087
lfoot -10.9946 5.98327
ltoes 26.0036
93
root 7.0666 16.2463 -2.50463 6.8814 -52.2258 3.24296
lowerback -4.19615 2.36709 -0.935219
upperback -5.14031 3.10136 -0.433955
thorax -2.9668 1.54703 0.124101
lowerneck 3.29719 11.7473 8.21692
upperneck 12.2039 17.032 -11.703
head 4.8366 8.2818 -4.16035
rclavicle 1.63997e-014 1.35174e-014
rhumerus -44.9908 -14.4389 -73.3436
rradius 27.8619
rwrist 10.045
rhand -9.92989 -48.5649
rfingers 7.12502
rthumb 16.0512 -77.9201
lclavicle 1.63997e-014 1.35174e-014
lhumerus -52.9055 13.0652 77.5381
lradius 38.6524
lwrist -14.1943
lhand -22.8617 -12.472
lfingers 7.12502
lthumb 3.57667 17.4777
rfemur -6.05191 2.16572 28.1058
rtibia 12.1788
rfoot -26.5875 -35.8718
rtoes 32.6171
lfemur -24.6398 -13.622 -10.255
ltibia 26.3229
lfoot -10.7572 6.08684
ltoes 27.3049
94
root 7.05874 16.2501 -2.49084 6.69636 -51.7845 3.47142
lowerback -4.11941 2.31184 -1.0556
upperback -5.16705 3.02918 -0.42963
thorax -3.04354 1.51539 0.190291
lowerneck 3.23645 11.8919 8.0426
upperneck 12.1962 17.2165 -11.6072
head 4.84108 8.36725 -4.08777
rclavicle -1.22128e-014 1.09332e-014
rhumerus -44.9756 -14.3769 -73.3528
rradius 27.9201
rwrist 10.2148
rhand -9.7482 -48.5731
rfingers 7.12502
rthumb 16.2261 -77.9141
lclavicle -1.22128e-014 1.09332e-014
lhumerus -52.9778 13.6864 77.1437
lradius 38.4303
lwrist -14.654
lhand -23.1845 -11.7219
lfingers 7.12502
lthumb 3.26497 18.2328
rfemur -5.9193 2.02861 27.9604
rtibia 12.0355
rfoot -26.8129 -36.1023
rtoes 32.7779
lfemur -24.5714 -13.6959 -10.3884
ltibia 25.9019
lfoot -10.6758 6.238
ltoes 27.5415
95
root 7.05125 16.2524 -2.4771 6.66451 -51.3311 3.49362
lowerback -4.08984 2.27843 -1.06482
upperback -5.228 2.9841 -0.395756
thorax -3.12528 1.49399 0.226637
lowerneck 3.52372 11.975 8.02783
upperneck 12.0742 17.3336 -11.6269
head 4.76929 8.43799 -4.10465
rclavicle -9.24721e-014 -3.97569e-016
rhumerus -44.9717 -13.9577 -73.529
rradius 27.9471
rwrist 9.82375
rhand -9.97621 -48.5561
rfingers 7.12502
rthumb 16.0066 -77.9148
lclavicle -9.24721e-014 -3.97569e-016
lhumerus -53.2431 14.1661 76.6824
lradius 38.2437
lwrist -15.1146
lhand -23.1217 -12.2958
lfingers 7.12502
lthumb 3.32562 17.658
rfemur -5.85222 1.89909 27.9659
rtibia 12.0305
rfoot -27.1042 -36.3537
rtoes 32.7531
lfemur -24.5457 -13.7606 -10.365
ltibia 25.4242
lfoot -10.6311 6.39262
ltoes 27.4186
96
root 7.04427 16.255 -2.46414 6.72412 -50.9354 3.47164
lowerback -4.10959 2.34825 -1.00916
upperback -5.36012 3.07172 -0.466387
thorax -3.24606 1.53424 0.121346
lowerneck 3.99942 11.936 8.1453
upperneck 11.9022 17.2777 -11.5613
head 4.63718 8.44164 -4.14283
rclavicle 4.32357e-015 -1.78906e-015
rhumerus -45.1342 -13.801 -73.6933
rradius 28.0087
rwrist 9.43706
rhand -10.4281 -48.3291
rfingers 7.12502
rthumb 15.5714 -77.7223
lclavicle 4.32357e-015 -1.78906e-015
lhumerus -53.5966 13.8492 76.4752
lradius 38.2869
lwrist -14.9188
lhand -23.2778 -12.4728
lfingers 7.12502
lthumb 3.1748 17.4833
rfemur -5.90261 1.76349 28.0181
rtibia 12.1236
rfoot -27.1552 -36.676
rtoes 32.5939
lfemur -24.5609 -13.7127 -10.3112
ltibia 24.9139
lfoot -10.3622 6.49278
ltoes 27.6459
97
root 7.0419 16.2567 -2.45103 6.76835 -50.6249 3.54483
lowerback -4.18451 2.41364 -1.09072
upperback -5.39344 3.15992 -0.495038
thorax -3.2429 1.58064 0.140666
lowerneck 4.10272 11.9443 8.30794
upperneck 11.84 17.2972 -11.5947
head 4.62023 8.46362 -4.18245
rclavicle -3.01904e-015 -3.57812e-015
rhumerus -45.0651 -13.7392 -73.8045
rradius 28.0932
rwrist 9.33354
rhand -10.5311 -48.2697
rfingers 7.12502
rthumb 15.4721 -77.6705
lclavicle -3.01904e-015 -3.57812e-015
lhumerus -53.6229 13.8928 76.3256
lradius 38.1647
lwrist -14.8034
lhand -23.9989 -11.4164
lfingers 7.12502
lthumb 2.47844 18.5489
rfemur -6.00859 1.60197 27.9952
rtibia 12.1912
rfoot -26.9733 -36.9798
rtoes 32.1518
lfemur -24.5784 -13.8231 -10.2666
ltibia 24.4245
lfoot -10.0029 6.88679
ltoes 28.2543
98
root 7.04021 16.2583 -2.43704 6.65338 -50.2586 3.74159
lowerback -4.19881 2.42501 -1.28286
upperback -5.30027 3.18234 -0.481179
thorax -3.14996 1.59938 0.265251
lowerneck 3.91607 12.0423 8.44731
upperneck 11.7508 17.4453 -11.7904
head 4.66844 8.53179 -4.23719
rclavicle 5.39949e-014 1.8487e-014
rhumerus -44.766 -13.2428 -74.093
rradius 28.2462
rwrist 9.10924
rhand -10.0667 -48.9766
rfingers 7.12502
rthumb 15.9194 -78.3423
lclavicle 5.39949e-014 1.8487e-014
lhumerus -53.4272 14.1073 76.3043
lradius 38.0271
lwrist -14.7914
lhand -24.492 -10.1147
lfingers 7.12502
lthumb 2.00215 19.8556
rfemur -5.99603 1.48384 27.8757
rtibia 12.162
rfoot -27.0279 -37.2656
rtoes 32.0525
lfemur -24.5535 -14.0815 -10.302
ltibia 23.9351
lfoot -9.88322 7.3264
ltoes 28.9085
